<svg xmlns="http://www.w3.org/2000/svg" viewBox="0 0 64 64"><path fill="#e6e7e8" d="M62,19V53a4,4,0,0,1-4,4H6a4,4,0,0,1-4-4V19Z"/><path fill="#00459a" d="M62,11v8H2V11A4,4,0,0,1,6,7H58A4,4,0,0,1,62,11Z"/><path d="M58,5H6a6,6,0,0,0-6,6V53a6,6,0,0,0,6,6H58a6,6,0,0,0,6-6V11A6,6,0,0,0,58,5ZM6,9H58a2,2,0,0,1,2,2v6H4V11A2,2,0,0,1,6,9ZM58,55H6a2,2,0,0,1-2-2V21H60V53A2,2,0,0,1,58,55Z"/><rect width="4" height="4" x="54" y="11"/><rect width="4" height="4" x="48" y="11"/><rect width="4" height="4" x="42" y="11"/><path d="M22.74 25.47l-11.2 11.2A2 2 0 0 0 11 38.08a2 2 0 0 0 .58 1.42l11.2 11.19 2.83-2.82-9.79-9.79 9.79-9.78zM41.26 25.47L38.43 28.3l9.79 9.78-9.79 9.79 2.83 2.82L52.46 39.5A2 2 0 0 0 53 38.08a2 2 0 0 0-.58-1.41z"/></svg>